<?xml version="1.0" encoding="utf-8"?>
<!-- Svg Vector Icons : http://www.onlinewebfonts.com/icon -->
<!DOCTYPE svg PUBLIC "-//W3C//DTD SVG 1.1//EN" "http://www.w3.org/Graphics/SVG/1.1/DTD/svg11.dtd">
<svg version="1.1" xmlns="http://www.w3.org/2000/svg" xmlns:xlink="http://www.w3.org/1999/xlink" x="0px" y="0px" viewBox="0 0 1000 1000" enable-background="new 0 0 1000 1000" xml:space="preserve">
<metadata> Svg Vector Icons : http://www.onlinewebfonts.com/icon </metadata>
<g><path fill="#fff" d="M221.3,461.2L221.3,461.2c0,19.4,15.6,35,35,35h614.1L701.3,665.4c-13.7,13.7-13.7,35.8,0,49.4l0,0c13.7,13.7,35.9,13.7,49.5,0l228.9-228.9c13.7-13.7,13.7-35.9,0-49.5L750.8,207.5c-13.7-13.7-35.9-13.7-49.5,0l0,0c-13.7,13.7-13.7,35.8,0,49.4l169.2,169.2H256.3C237.1,426.2,221.3,441.8,221.3,461.2z"/><path fill="#fff" d="M920,745.7V885c0,19.4-15.6,35-35,35H115c-19.4,0-35-15.6-35-35V115c0-19.4,15.6-35,35-35h770c19.4,0,35,15.6,35,35v139c0,19.4,15.6,35,35,35l0,0c19.4,0,35-15.6,35-35V80c0-38.6-31.4-70-70-70H80c-38.6,0-70,31.4-70,70v840c0,38.6,31.4,70,70,70h840c38.6,0,70-31.4,70-70V745.7c0-19.4-15.6-35-35-35l0,0C935.6,710.7,920,726.3,920,745.7z"/></g>
</svg>