<svg width="18" height="18" viewBox="0 0 18 18" fill="none" xmlns="http://www.w3.org/2000/svg">
<path d="M1.28571 16.3125C1.28571 16.7601 1.4889 17.1893 1.85058 17.5057C2.21226 17.8222 2.7028 18 3.21429 18H14.7857C15.2972 18 15.7877 17.8222 16.1494 17.5057C16.5111 17.1893 16.7143 16.7601 16.7143 16.3125V4.5H1.28571V16.3125ZM12.2143 7.3125C12.2143 7.16332 12.282 7.02025 12.4026 6.91476C12.5231 6.80927 12.6866 6.75 12.8571 6.75C13.0276 6.75 13.1912 6.80927 13.3117 6.91476C13.4323 7.02025 13.5 7.16332 13.5 7.3125V15.1875C13.5 15.3367 13.4323 15.4798 13.3117 15.5852C13.1912 15.6907 13.0276 15.75 12.8571 15.75C12.6866 15.75 12.5231 15.6907 12.4026 15.5852C12.282 15.4798 12.2143 15.3367 12.2143 15.1875V7.3125ZM8.35714 7.3125C8.35714 7.16332 8.42487 7.02025 8.54543 6.91476C8.66599 6.80927 8.8295 6.75 9 6.75C9.1705 6.75 9.33401 6.80927 9.45457 6.91476C9.57513 7.02025 9.64286 7.16332 9.64286 7.3125V15.1875C9.64286 15.3367 9.57513 15.4798 9.45457 15.5852C9.33401 15.6907 9.1705 15.75 9 15.75C8.8295 15.75 8.66599 15.6907 8.54543 15.5852C8.42487 15.4798 8.35714 15.3367 8.35714 15.1875V7.3125ZM4.5 7.3125C4.5 7.16332 4.56773 7.02025 4.68829 6.91476C4.80885 6.80927 4.97236 6.75 5.14286 6.75C5.31335 6.75 5.47687 6.80927 5.59743 6.91476C5.71798 7.02025 5.78571 7.16332 5.78571 7.3125V15.1875C5.78571 15.3367 5.71798 15.4798 5.59743 15.5852C5.47687 15.6907 5.31335 15.75 5.14286 15.75C4.97236 15.75 4.80885 15.6907 4.68829 15.5852C4.56773 15.4798 4.5 15.3367 4.5 15.1875V7.3125ZM17.3571 1.12501H12.5357L12.158 0.467584C12.078 0.327034 11.9548 0.208807 11.8022 0.126202C11.6496 0.0435979 11.4736 -0.000106452 11.2942 6.16384e-06H6.70179C6.52274 -0.000596081 6.34712 0.0429453 6.19506 0.125642C6.04299 0.208338 5.92062 0.326845 5.84196 0.467584L5.46429 1.12501H0.642857C0.472361 1.12501 0.308848 1.18427 0.188289 1.28976C0.0677294 1.39525 0 1.53832 0 1.68751L0 2.81251C0 2.96169 0.0677294 3.10476 0.188289 3.21025C0.308848 3.31574 0.472361 3.37501 0.642857 3.37501H17.3571C17.5276 3.37501 17.6912 3.31574 17.8117 3.21025C17.9323 3.10476 18 2.96169 18 2.81251V1.68751C18 1.53832 17.9323 1.39525 17.8117 1.28976C17.6912 1.18427 17.5276 1.12501 17.3571 1.12501V1.12501Z" fill="black"/>
</svg>
